<svg width="334.104" height="486.131" viewBox="0 0 334.104 486.131" xmlns="http://www.w3.org/2000/svg" xmlns:xlink="http://www.w3.org/1999/xlink" id="Layer_1" overflow="hidden"><style>
.MsftOfcResponsive_Fill_008bd0 {
 fill:#008BD0; 
}
</style>
<g id="change1"><path d="M284.22 122.867C261.019 65.638 200.313 49.311 197.741 48.643 189.719 46.562 181.512 51.372 179.431 59.393 177.353 67.414 182.145 75.592 190.163 77.671 190.648 77.8 238.977 91.118 256.417 134.138 258.781 139.969 264.396 143.506 270.323 143.506 272.2 143.506 274.108 143.152 275.954 142.402 283.632 139.293 287.333 130.545 284.22 122.867Z" class="MsftOfcResponsive_Fill_008bd0" fill="#008BD0"/><path d="M334.104 162.969C334.104 73.108 259.165 0 167.052 0 74.939 0 0 73.107 0 162.969 0 206.205 19.436 235.811 38.229 264.441 57.667 294.047 76.026 322.014 76.026 366.62L76.026 395.224C76.026 412.157 82.701 428.022 94.824 439.909L122.711 467.796C134.937 480.024 150.991 486.135 167.052 486.133 183.11 486.132 199.17 480.02 211.394 467.796L239.283 439.908C251.406 428.02 258.08 412.156 258.08 395.224L258.08 379.22C258.08 368.811 260.037 344.843 260.426 340.185 266.002 309.53 280.612 287.255 296.081 263.692 314.773 235.215 334.104 205.773 334.104 162.969ZM106.027 395.223 106.027 366.619C106.027 361.975 105.857 357.477 105.532 353.11L229.343 353.11C229.093 356.674 228.841 360.494 228.63 364.217L167.054 364.217C158.769 364.217 152.054 370.933 152.054 379.217 152.054 387.5 158.769 394.217 167.054 394.217L228.079 394.217 228.079 395.221C228.079 399.879 227.097 404.382 225.241 408.512 225.035 408.502 224.832 408.481 224.624 408.481L109.483 408.481C109.274 408.481 109.071 408.502 108.865 408.512 107.011 404.383 106.027 399.881 106.027 395.223ZM189.979 227.537C189.961 228.497 189.545 243.118 181.041 261.635 176.858 270.739 171.515 279.221 165.035 287.051 138.952 257.74 141.143 232.051 141.417 229.65L141.574 228.791 141.574 227.468C141.574 214.122 152.43 203.265 165.777 203.265 179.123 203.265 189.98 214.122 189.98 227.468L189.977 227.429 189.979 227.537ZM143.925 446.58 135.826 438.481 198.28 438.481 190.18 446.58C177.429 459.332 156.679 459.332 143.925 446.58ZM233.472 323.11 212.54 323.11C212.397 323.027 212.267 322.933 212.119 322.854 202.656 317.733 194.454 312.483 187.339 307.204 219.448 269.183 219.989 230.459 219.981 227.432 219.962 197.559 195.655 173.263 165.778 173.263 136.197 173.263 112.074 197.08 111.583 226.547 110.824 234.055 109.301 269.995 143.309 307.747 136.119 313.215 128.157 318.213 119.439 322.726 119.21 322.843 119.001 322.982 118.782 323.11L100.582 323.11C92.646 292.661 77.325 269.321 63.312 247.976 45.439 220.749 30.002 197.238 30.002 162.968 30.001 89.65 91.482 30 167.054 30 242.624 30 304.105 89.649 304.105 162.969 304.105 196.805 288.765 220.17 271.001 247.226 257.042 268.488 241.433 292.263 233.472 323.11Z" class="MsftOfcResponsive_Fill_008bd0" fill="#008BD0"/></g></svg>